<svg xmlns="http://www.w3.org/2000/svg" xmlns:svg="http://www.w3.org/2000/svg" xmlns:xlink="http://www.w3.org/1999/xlink" version="1.0" height="520.0417327880859pt" width="825.0026092529297pt" viewBox="330 677 833.0026092529297 526.0417327880859" ><defs><style type="text/css">
            @font-face {
                font-family: 'noto_regular';
                src: url('https://app.creately.com/diagram/assets/fonts/noto/noto-regular.woff') format('woff'),
                     url('https://app.creately.com/diagram/assets/fonts/noto/noto-regular.woff2') format('woff2');
                font-weight: normal;
                font-style: normal;
            }
        p {
            margin: 0;
        }
        </style></defs><defs><style>
            span{ display: inline-block; }
        </style></defs><g id="xglp0bfdlg"><g transform="translate(335 680)"><path d="M 0.75,0.75 L 825.0062354803085,0.75 L 825.0062354803085,520.05 L 0.75,520.05 Z" fill="rgb(250, 250, 250)" stroke="rgb(24, 36, 59)" stroke-width="1.5" stroke-linecap="round" stroke-linejoin="round"/><path d="M 0.75,0.75 L 137.0400390625,0.75 L 137.0400390625,26.72998046875 L 127.0400390625,36.72998046875 L 0.75,36.72998046875 L 0.75,0.75" fill="rgb(255, 255, 255)" stroke="rgb(24, 36, 59)" stroke-width="1.5" stroke-linecap="round" stroke-linejoin="round"/></g><g transform="translate(341.9999692322427, 687.9998728243528) rotate(0, 0, 0)" width="149" height="19"><text text-decoration="none" x="0" fill="#4b4b4b" font-size="11pt" font-family="Lato"  y="15">cd&#160;</text><text text-decoration="none" x="20" fill="#4b4b4b" font-size="11pt" font-family="Lato"  y="15">Comminications&#160;</text><text text-decoration="none" x="135" fill="#4b4b4b" font-size="10pt" font-family="noto_regular"  y="15"></text></g></g><g id="2bpj90j9qb"><g transform="translate(430 765)"><path d="M 9.014000000000001,10.58 C 9.013999898970633,18.33958761790857 18.956499835827277,23.18932997366301 26.91049988634196,19.309536238628727 C 30.60196423780382,17.508917660184366 32.87600004688789,14.181237225501507 32.876,10.58 C 32.87600010102937,2.8204123820914297 22.933500164172727,-2.0293299736630095 14.979500113658045,1.850463761371273 C 11.288035762196184,3.6510823398156336 9.013999953112107,6.9787627744984935 9.014000000000001,10.58" fill="rgb(255, 255, 255)" stroke="rgb(46, 176, 137)" stroke-width="1.5" vector-effect="non-scaling-stroke"/><path d="M 40.396,80.458 L 20.818,54.099" fill="rgb(255, 255, 255)" stroke="rgb(46, 176, 137)" stroke-width="1.5" vector-effect="non-scaling-stroke"/><path d="M 20.818,54.099 L 0.396,80.5" fill="rgb(255, 255, 255)" stroke="rgb(46, 176, 137)" stroke-width="1.5" vector-effect="non-scaling-stroke"/><path d="M 20.945,54.341 L 20.945,20.066" fill="rgb(255, 255, 255)" stroke="rgb(46, 176, 137)" stroke-width="1.5" vector-effect="non-scaling-stroke"/><path d="M 2.156,29.552 L 39.19,29.552" fill="rgb(255, 255, 255)" stroke="rgb(46, 176, 137)" stroke-width="1.5" vector-effect="non-scaling-stroke"/></g></g><g id="5kztxijtn1"><g transform="translate(640 775)"><path d="M 21,30 C 21.000000000000004,52.32421040866552 45.16666666666667,66.27684191408149 64.5,55.114736709748726 C 73.4726312259966,49.93438565608035 79,40.36070210733675 79,30 C 79,7.675789591334478 54.83333333333334,-6.27684191408148 35.50000000000001,4.885263290251277 C 26.52736877400342,10.065614343919648 21,19.639297892663254 21,30" fill="rgb(255, 255, 255)" stroke="rgb(16, 123, 149)" stroke-width="2" stroke-miterlimit="10" stroke-dasharray=""/><path d="M 20,30 L 0,30" fill="rgb(255, 255, 255)" stroke="rgb(16, 123, 149)" stroke-width="2" stroke-miterlimit="10" stroke-dasharray=""/><path d="M 1,0 L 1,60" fill="rgb(255, 255, 255)" stroke="rgb(16, 123, 149)" stroke-width="2" stroke-miterlimit="10" stroke-dasharray=""/></g></g><g id="2iix62b7qu"><g><path d="M 470,805 L 640,805" fill="none" stroke="#959595" stroke-width="1.5" stroke-linecap="round" stroke-linejoin="round"/></g></g><g id="6nhqnkxmmh"><g transform="translate(535 1060)"><path d="M 21,30 C 21.000000000000004,52.32421040866552 45.16666666666667,66.27684191408149 64.5,55.114736709748726 C 73.4726312259966,49.93438565608035 79,40.36070210733675 79,30 C 79,7.675789591334478 54.83333333333334,-6.27684191408148 35.50000000000001,4.885263290251277 C 26.52736877400342,10.065614343919648 21,19.639297892663254 21,30" fill="rgb(255, 255, 255)" stroke="rgb(16, 123, 149)" stroke-width="2" stroke-miterlimit="10" stroke-dasharray=""/><path d="M 20,30 L 0,30" fill="rgb(255, 255, 255)" stroke="rgb(16, 123, 149)" stroke-width="2" stroke-miterlimit="10" stroke-dasharray=""/><path d="M 1,0 L 1,60" fill="rgb(255, 255, 255)" stroke="rgb(16, 123, 149)" stroke-width="2" stroke-miterlimit="10" stroke-dasharray=""/></g><g transform="translate(536.4, 1130) rotate(0, 0, 0)" width="97" height="19"><text text-decoration="none" x="0" fill="#4b4b4b" font-size="11pt" font-family="Lato"  y="15">Edit&#160;</text><text text-decoration="none" x="30" fill="#4b4b4b" font-size="11pt" font-family="Lato"  y="15">Contact&#160;</text><text text-decoration="none" x="87" fill="#4b4b4b" font-size="10pt" font-family="noto_regular"  y="15"></text></g></g><g id="cb4ecs48vr"><g><path d="M 450,845 L 590,1060" fill="none" stroke="#959595" stroke-width="1.5" stroke-linecap="round" stroke-linejoin="round"/></g></g><g id="16qqbtpdd4"><g><path d="M 695,835 L 850.45,1065.1433333333332" fill="none" stroke="#959595" stroke-width="1.5" stroke-linecap="round" stroke-linejoin="round"/></g></g><g id="57qrm4xse0"><g transform="translate(820 1058.3333333333333)"><path d="M 0.3000000000000007,37.3 C 0.30000000000000354,60.39401076758503 25.299999999999997,74.82776749732567 45.3,63.28076211353316 C 54.582032302755096,57.9217782649107 60.3,48.017967697244906 60.3,37.3 C 60.3,14.205989232414964 35.300000000000004,-0.22776749732567225 15.300000000000004,11.319237886466837 C 6.017967697244909,16.678221735089288 0.30000000000000204,26.58203230275509 0.3000000000000007,37.3" fill="rgb(255, 255, 255)" stroke="rgb(16, 123, 149)" stroke-width="2" stroke-miterlimit="10" stroke-dasharray=""/><path d="M 30,7.3 L 37.3,0" fill="rgb(255, 255, 255)" stroke="rgb(16, 123, 149)" stroke-width="2" stroke-miterlimit="10" stroke-dasharray=""/><path d="M 30,7.3 L 37.3,14.7" fill="rgb(255, 255, 255)" stroke="rgb(16, 123, 149)" stroke-width="2" stroke-miterlimit="10" stroke-dasharray=""/></g><g transform="translate(796.9, 1136.4333333333332) rotate(0, 0, 0)" width="134" height="19"><text text-decoration="none" x="0" fill="#4b4b4b" font-size="11pt" font-family="Lato"  y="15">Contact&#160;</text><text text-decoration="none" x="57" fill="#4b4b4b" font-size="11pt" font-family="Lato"  y="15">Manager&#160;</text><text text-decoration="none" x="119" fill="#4b4b4b" font-size="10pt" font-family="noto_regular"  y="15"></text></g></g><g id="2lbxtforhx"><g transform="translate(890 775)"><path d="M 0.3000000000000007,37.3 C 0.30000000000000354,60.39401076758503 25.299999999999997,74.82776749732567 45.3,63.28076211353316 C 54.582032302755096,57.9217782649107 60.3,48.017967697244906 60.3,37.3 C 60.3,14.205989232414964 35.300000000000004,-0.22776749732567225 15.300000000000004,11.319237886466837 C 6.017967697244909,16.678221735089288 0.30000000000000204,26.58203230275509 0.3000000000000007,37.3" fill="rgb(255, 255, 255)" stroke="rgb(16, 123, 149)" stroke-width="2" stroke-miterlimit="10" stroke-dasharray=""/><path d="M 30,7.3 L 37.3,0" fill="rgb(255, 255, 255)" stroke="rgb(16, 123, 149)" stroke-width="2" stroke-miterlimit="10" stroke-dasharray=""/><path d="M 30,7.3 L 37.3,14.7" fill="rgb(255, 255, 255)" stroke="rgb(16, 123, 149)" stroke-width="2" stroke-miterlimit="10" stroke-dasharray=""/></g></g><g id="1rr1ebtrmi"><g><path d="M 850.45,1065.1433333333332 L 920.45,843.1" fill="none" stroke="#959595" stroke-width="1.5" stroke-linecap="round" stroke-linejoin="round"/></g></g><g id="2mpcqlkk8u"><g transform="translate(1040 1045)"><path d="M 1,30 C 1.0000000000000027,52.32421040866552 25.166666666666668,66.27684191408149 44.5,55.114736709748726 C 53.472631225996594,49.93438565608035 59,40.36070210733675 59,30 C 59,7.675789591334478 34.83333333333334,-6.27684191408148 15.500000000000007,4.885263290251277 C 6.527368774003417,10.065614343919648 1.0000000000000013,19.639297892663254 1,30" fill="rgb(255, 255, 255)" stroke="rgb(16, 123, 149)" stroke-width="2" stroke-miterlimit="10" stroke-dasharray=""/><path d="M 0,59 L 60,59" fill="rgb(255, 255, 255)" stroke="rgb(16, 123, 149)" stroke-width="2" stroke-miterlimit="10" stroke-dasharray=""/></g><g transform="translate(1042.15, 1115) rotate(0, 0, 0)" width="71" height="19"><text text-decoration="none" x="0" fill="#4b4b4b" font-size="11pt" font-family="Lato"  y="15">Contacts&#160;</text><text text-decoration="none" x="65" fill="#4b4b4b" font-size="10pt" font-family="noto_regular"  y="15"></text></g></g><g id="8evqktf9d9"><g><path d="M 920.45,843.1 L 1070,1045" fill="none" stroke="#959595" stroke-width="1.5" stroke-linecap="round" stroke-linejoin="round"/></g></g><g id="18y0ivtxc0"><g transform="translate(815 845)"><rect x="0" y="0" width="93.99999976158142" height="34.7496337890625" fill="rgba(255,255,255,0.01)" stroke="rgba(255,255,255,0.01)" stroke-width="NaN" stroke-linecap="round" stroke-linejoin="round"/></g><g transform="translate(824.4999998807907, 844.8748168945312) rotate(0, 37.5, 17.5)" width="75" height="35"><text text-decoration="none" x="3.5" fill="rgb(75, 75, 75)" font-size="10pt" font-family="Lato"  y="12">Persistence&#160;</text><text text-decoration="none" x="12.5" fill="rgb(75, 75, 75)" font-size="10pt" font-family="Lato"  y="31">Manager</text><text text-decoration="none" x="62.5" fill="#4b4b4b" font-size="10pt" font-family="noto_regular"  y="31"></text></g></g><g id="2dzfxjmph5"><g transform="translate(585 835)"><rect x="0" y="0" width="113" height="40.49995422363281" fill="rgba(255,255,255,0.01)" stroke="rgba(255,255,255,0.01)" stroke-width="NaN" stroke-linecap="round" stroke-linejoin="round"/></g><g transform="translate(586.5, 845.7499771118164) rotate(0, 55, 9.5)" width="110" height="19"><text text-decoration="none" x="7.5" fill="rgb(75, 75, 75)" font-size="10pt" font-family="Lato"  y="15">View&#160;</text><text text-decoration="none" x="38.5" fill="rgb(75, 75, 75)" font-size="10pt" font-family="Lato"  y="15">Contact&#160;</text><text text-decoration="none" x="85.5" fill="rgb(75, 75, 75)" font-size="10pt" font-family="Lato"  y="15">list</text><text text-decoration="none" x="102.5" fill="#4b4b4b" font-size="10pt" font-family="noto_regular"  y="15"></text></g></g><g id="1fnzh308vp"><g transform="translate(370 835)"><rect x="0" y="0" width="75" height="34.749603271484375" fill="rgba(255,255,255,0.01)" stroke="rgba(255,255,255,0.01)" stroke-width="NaN" stroke-linecap="round" stroke-linejoin="round"/></g><g transform="translate(377, 834.8748016357422) rotate(0, 30.5, 17.5)" width="61" height="35"><text text-decoration="none" x="16" fill="rgb(75, 75, 75)" font-size="10pt" font-family="Lato"  y="12">Staff&#160;</text><text text-decoration="none" x="3.5" fill="rgb(75, 75, 75)" font-size="10pt" font-family="Lato"  y="31">Memeber</text><text text-decoration="none" x="57.5" fill="#4b4b4b" font-size="10pt" font-family="noto_regular"  y="31"></text></g></g><g id="1v9twzmrer"><g transform="translate(470 760)"><rect x="0" y="0" width="150" height="37" fill="rgba(255,255,255,0.01)" stroke="rgba(255,255,255,0.01)" stroke-width="NaN" stroke-linecap="round" stroke-linejoin="round"/></g><g transform="translate(488.5, 769) rotate(0, 56.5, 9.5)" width="113" height="19"><text text-decoration="none" x="8" fill="rgb(24, 36, 59)" font-size="10pt" font-family="Lato"  y="15">1:&#160;</text><text text-decoration="none" x="21" fill="rgb(24, 36, 59)" font-size="10pt" font-family="Lato"  y="15">Create&#160;</text><text text-decoration="none" x="61" fill="rgb(24, 36, 59)" font-size="10pt" font-family="Lato"  y="15">Contact</text><text text-decoration="none" x="105" fill="#4b4b4b" font-size="10pt" font-family="noto_regular"  y="15"></text></g></g><g id="1vzggngyha"><g><path d="M 605,780 L 640,780" fill="none" stroke="#18243b" stroke-width="1.5" stroke-linecap="round" stroke-linejoin="round"/><path d="M 640,780 L 631.304347826087,774.25 L 631.304347826087,785.75 Z" fill="rgb(24,36,59)" stroke="#18243b" stroke-width="1.5" stroke-linecap="round" stroke-linejoin="round"/></g></g><g id="1syc70vb11"><g><path d="M 713.0384615384613,920.4230769230771 L 713.7692307692308,959.3076923076925" fill="none" stroke="#18243b" stroke-width="1.5" stroke-linecap="round" stroke-linejoin="round"/><path d="M 713.7692307692308,959.3076923076925 L 719.3548247025238,950.5055330758881 L 707.8568549908317,950.7216175709644 Z" fill="rgb(24,36,59)" stroke="#18243b" stroke-width="1.5" stroke-linecap="round" stroke-linejoin="round"/></g></g><g id="1exbvxb3zj"><g transform="translate(570 920)"><rect x="0" y="0" width="150" height="37" fill="rgba(255,255,255,0.01)" stroke="rgba(255,255,255,0.01)" stroke-width="NaN" stroke-linecap="round" stroke-linejoin="round"/></g><g transform="translate(582.5, 929) rotate(0, 62.5, 9.5)" width="125" height="19"><text text-decoration="none" x="9" fill="rgb(24, 36, 59)" font-size="10pt" font-family="Lato"  y="15">1.1:&#160;</text><text text-decoration="none" x="32" fill="rgb(24, 36, 59)" font-size="10pt" font-family="Lato"  y="15">Create&#160;</text><text text-decoration="none" x="72" fill="rgb(24, 36, 59)" font-size="10pt" font-family="Lato"  y="15">Contact</text><text text-decoration="none" x="116" fill="#4b4b4b" font-size="10pt" font-family="noto_regular"  y="15"></text></g></g><g id="1yqj25pp19"><g><path d="M 467.2307692307692,946.6538461538464 L 467.96153846153874,985.5384615384618" fill="none" stroke="#18243b" stroke-width="1.5" stroke-linecap="round" stroke-linejoin="round"/><path d="M 467.96153846153874,985.5384615384618 L 473.54713239483175,976.7363023066574 L 462.0491626831397,976.9523868017337 Z" fill="rgb(24,36,59)" stroke="#18243b" stroke-width="1.5" stroke-linecap="round" stroke-linejoin="round"/></g></g><g id="s2jsjphnv5"><g transform="translate(400.00384615384615 945.0307692307691)"><rect x="0" y="0" width="69.65450048446655" height="34.74992746114731" fill="rgba(255,255,255,0.01)" stroke="rgba(255,255,255,0.01)" stroke-width="NaN" stroke-linecap="round" stroke-linejoin="round"/></g><g transform="translate(410.83109639607943, 952.9057329613428) rotate(0, 24, 9.5)" width="48" height="19"><text text-decoration="none" x="3.5" fill="rgb(24, 36, 59)" font-size="10pt" font-family="Lato"  y="15">2:&#160;</text><text text-decoration="none" x="16.5" fill="rgb(24, 36, 59)" font-size="10pt" font-family="Lato"  y="15">Save</text><text text-decoration="none" x="44.5" fill="#4b4b4b" font-size="10pt" font-family="noto_regular"  y="15"></text></g></g><g id="1ovmx5vwpq"><g><path d="M 787.0205128205127,1077.0384615384612 L 822.0205128205127,1077.0384615384612" fill="none" stroke="#18243b" stroke-width="1.5" stroke-linecap="round" stroke-linejoin="round"/><path d="M 822.0205128205127,1077.0384615384612 L 813.3248606465997,1071.2884615384612 L 813.3248606465997,1082.7884615384612 Z" fill="rgb(24,36,59)" stroke="#18243b" stroke-width="1.5" stroke-linecap="round" stroke-linejoin="round"/></g></g><g id="9566f0d6ih"><g transform="translate(664.8333333333334 1060)"><rect x="0" y="0" width="124.9931663274765" height="30.000548899173737" fill="rgba(255,255,255,0.01)" stroke="rgba(255,255,255,0.01)" stroke-width="NaN" stroke-linecap="round" stroke-linejoin="round"/></g><g transform="translate(671.3299164970716, 1065.5002744495869) rotate(0, 56, 9.5)" width="112" height="19"><text text-decoration="none" x="7.5" fill="rgb(24, 36, 59)" font-size="10pt" font-family="Lato"  y="15">2.1:&#160;</text><text text-decoration="none" x="30.5" fill="rgb(24, 36, 59)" font-size="10pt" font-family="Lato"  y="15">Save&#160;</text><text text-decoration="none" x="61.5" fill="rgb(24, 36, 59)" font-size="10pt" font-family="Lato"  y="15">contact</text><text text-decoration="none" x="104.5" fill="#4b4b4b" font-size="10pt" font-family="noto_regular"  y="15"></text></g></g><g id="u2de0lqqzf"><g><path d="M 888.6923076923076,1047.3076923076926 L 888.0769230769234,1000.7307692307692" fill="none" stroke="#18243b" stroke-width="1.5" stroke-linecap="round" stroke-linejoin="round"/><path d="M 888.0769230769234,1000.7307692307692 L 882.442303733815,1009.5016261779521 L 893.9413001291542,1009.3496988927949 Z" fill="rgb(24,36,59)" stroke="#18243b" stroke-width="1.5" stroke-linecap="round" stroke-linejoin="round"/></g></g><g id="22ri0gzfwp"><g transform="translate(890 1010)"><rect x="0" y="0" width="150" height="37" fill="rgba(255,255,255,0.01)" stroke="rgba(255,255,255,0.01)" stroke-width="NaN" stroke-linecap="round" stroke-linejoin="round"/></g><g transform="translate(894, 1019) rotate(0, 71, 9.5)" width="142" height="19"><text text-decoration="none" x="8" fill="rgb(24, 36, 59)" font-size="10pt" font-family="Lato"  y="15">2.2:&#160;</text><text text-decoration="none" x="31" fill="rgb(24, 36, 59)" font-size="10pt" font-family="Lato"  y="15">Make&#160;</text><text text-decoration="none" x="66" fill="rgb(24, 36, 59)" font-size="10pt" font-family="Lato"  y="15">Persistence</text><text text-decoration="none" x="134" fill="#4b4b4b" font-size="10pt" font-family="noto_regular"  y="15"></text></g></g><g id="vq5fs2h2g0"><g><path d="M 1002.2307692307693,883.5000000000005 L 1002.9615384615388,922.3846153846158" fill="none" stroke="#18243b" stroke-width="1.5" stroke-linecap="round" stroke-linejoin="round"/><path d="M 1002.9615384615388,922.3846153846158 L 1008.5471323948318,913.5824561528115 L 997.0491626831397,913.7985406478878 Z" fill="rgb(24,36,59)" stroke="#18243b" stroke-width="1.5" stroke-linecap="round" stroke-linejoin="round"/></g></g><g id="24hgq9fiu6"><g transform="translate(995 885)"><rect x="0" y="0" width="150" height="45.729461669921875" fill="rgba(255,255,255,0.01)" stroke="rgba(255,255,255,0.01)" stroke-width="NaN" stroke-linecap="round" stroke-linejoin="round"/></g><g transform="translate(1008, 898.3647308349609) rotate(0, 62, 9.5)" width="124" height="19"><text text-decoration="none" x="8.5" fill="rgb(24, 36, 59)" font-size="10pt" font-family="Lato"  y="15">2.3:&#160;</text><text text-decoration="none" x="31.5" fill="rgb(24, 36, 59)" font-size="10pt" font-family="Lato"  y="15">Insert&#160;</text><text text-decoration="none" x="67.5" fill="rgb(24, 36, 59)" font-size="10pt" font-family="Lato"  y="15">Contatct</text><text text-decoration="none" x="115.5" fill="#4b4b4b" font-size="10pt" font-family="noto_regular"  y="15"></text></g></g><g id="48nv0icr9b"><g><path d="M 659,1112 L 619,1112" fill="none" stroke="#18243b" stroke-width="1.5" stroke-linecap="round" stroke-linejoin="round"/><path d="M 619,1112 L 627.695652173913,1117.75 L 627.695652173913,1106.25 Z" fill="rgb(24,36,59)" stroke="#18243b" stroke-width="1.5" stroke-linecap="round" stroke-linejoin="round"/></g></g><g id="137i6l09rv"><g transform="translate(643.3 1089.8666666666668)"><rect x="0" y="0" width="150" height="37" fill="rgba(255,255,255,0.01)" stroke="rgba(255,255,255,0.01)" stroke-width="NaN" stroke-linecap="round" stroke-linejoin="round"/></g><g transform="translate(660.3, 1098.8666666666668) rotate(0, 58, 9.5)" width="116" height="19"><text text-decoration="none" x="8" fill="rgb(24, 36, 59)" font-size="10pt" font-family="Lato"  y="15">1.2:&#160;</text><text text-decoration="none" x="31" fill="rgb(24, 36, 59)" font-size="10pt" font-family="Lato"  y="15">Open&#160;</text><text text-decoration="none" x="64" fill="rgb(24, 36, 59)" font-size="10pt" font-family="Lato"  y="15">Contact</text><text text-decoration="none" x="108" fill="#4b4b4b" font-size="10pt" font-family="noto_regular"  y="15"></text></g></g><g id="2lau5xobns"><g><path d="M 820,1092.3833333333332 L 615,1090" fill="none" stroke="#959595" stroke-width="1.5" stroke-linecap="round" stroke-linejoin="round"/></g></g></svg>